<?xml version="1.0" encoding="UTF-8"?>
<svg version="1.1" xmlns="http://www.w3.org/2000/svg" width="63" height="61">
<path d="M0 0 C20.79 0 41.58 0 63 0 C63 20.13 63 40.26 63 61 C42.21 61 21.42 61 0 61 C0 40.87 0 20.74 0 0 Z " fill="#040304" transform="translate(0,0)"/>
<path d="M0 0 C0 0.66 0 1.32 0 2 C0.721875 2.226875 1.44375 2.45375 2.1875 2.6875 C6.0798863 4.50394694 9.06137486 7.12274973 11 11 C11.16796875 13.05859375 11.16796875 13.05859375 11.1875 15.4375 C11.20167969 16.21996094 11.21585938 17.00242187 11.23046875 17.80859375 C11 20 11 20 9 23 C5.2405255 24.25315817 1.70718722 24.1817264 -2.2109375 24.203125 C-3.01608795 24.20882507 -3.8212384 24.21452515 -4.65078735 24.22039795 C-6.35376678 24.22983936 -8.0567644 24.23637852 -9.75976562 24.24023438 C-12.35839873 24.24993801 -14.95624003 24.28096784 -17.5546875 24.3125 C-19.21093281 24.31903067 -20.86718377 24.32428089 -22.5234375 24.328125 C-23.29754974 24.3404718 -24.07166199 24.3528186 -24.86923218 24.36553955 C-29.39063098 24.34696964 -32.49809406 23.97445418 -36 21 C-36.7768343 16.83334329 -36.86740981 14.54237178 -34.78515625 10.83984375 C-33.28128819 8.79259333 -31.69145744 6.89392616 -30 5 C-29.401875 4.236875 -28.80375 3.47375 -28.1875 2.6875 C-20.40200855 -3.31845054 -8.84715499 -3.82579675 0 0 Z " fill="#CAD4B0" transform="translate(44,20)"/>
<path d="M0 0 C0.66 0 1.32 0 2 0 C1.67 1.32 1.34 2.64 1 4 C-3.455 4.495 -3.455 4.495 -8 5 C-7.67 7.31 -7.34 9.62 -7 12 C-0.07 12 6.86 12 14 12 C14 12.33 14 12.66 14 13 C1.79 13 -10.42 13 -23 13 C-23 12.67 -23 12.34 -23 12 C-18.545 11.505 -18.545 11.505 -14 11 C-14.99 9.68 -15.98 8.36 -17 7 C-16.2575 7.0825 -15.515 7.165 -14.75 7.25 C-11.8610459 7.30029197 -11.8610459 7.30029197 -10.1875 5 C-7.66160216 2.69060769 -7.03626087 2.72689799 -3.75 2.75 C-2.5125 2.8325 -1.275 2.915 0 3 C0 2.01 0 1.02 0 0 Z " fill="#CFB0B1" transform="translate(36,31)"/>
<path d="M0 0 C0.625 1.875 0.625 1.875 1 4 C-1 6 -1 6 -4.2578125 6.1953125 C-5.53398438 6.17210937 -6.81015625 6.14890625 -8.125 6.125 C-10.04699219 6.09792969 -10.04699219 6.09792969 -12.0078125 6.0703125 C-13.48894531 6.03550781 -13.48894531 6.03550781 -15 6 C-15 5.67 -15 5.34 -15 5 C-13.87851562 4.96132813 -13.87851562 4.96132813 -12.734375 4.921875 C-6.59307795 4.71313116 -6.59307795 4.71313116 -1.3125 1.9375 C-0.6628125 0.9784375 -0.6628125 0.9784375 0 0 Z " fill="#E4DEB3" transform="translate(52,37)"/>
<path d="M0 0 C0.33 0 0.66 0 1 0 C1 1.98 1 3.96 1 6 C1.99 6.33 2.98 6.66 4 7 C4 7.99 4 8.98 4 10 C2.68 9.34 1.36 8.68 0 8 C0 5.36 0 2.72 0 0 Z " fill="#BAA293" transform="translate(8,33)"/>
</svg>
