<svg width="48" height="48" viewBox="0 0 48 48" xmlns="http://www.w3.org/2000/svg"><path d="M12.414 17.772 C 9.324 20.946,6.805 23.573,6.817 23.608 C 6.854 23.713,18.034 35.827,18.100 35.834 C 18.133 35.837,18.160 34.489,18.160 32.837 C 18.160 29.466,18.155 29.498,18.739 28.901 C 19.140 28.492,19.491 28.367,20.720 28.197 C 21.966 28.024,25.497 27.952,26.884 28.072 C 29.312 28.281,31.733 28.719,32.947 29.169 C 35.041 29.944,37.073 31.202,39.408 33.169 L 40.400 34.004 40.267 33.662 C 38.422 28.929,34.898 24.648,30.767 22.119 C 28.802 20.916,26.864 20.147,24.520 19.641 C 23.295 19.377,22.575 19.287,20.971 19.199 C 19.439 19.115,19.069 19.006,18.659 18.522 C 18.169 17.941,18.164 17.902,18.162 14.820 C 18.161 13.269,18.132 12.000,18.097 12.000 C 18.063 12.000,15.505 14.597,12.414 17.772 " fill="currentColor" stroke="none" fill-rule="evenodd"></path></svg>