<svg width="137" height="137" viewBox="0 0 137 137" fill="none" xmlns="http://www.w3.org/2000/svg">
<path fill-rule="evenodd" clip-rule="evenodd" d="M68.5 119.875C75.2467 119.875 81.9273 118.546 88.1604 115.964C94.3935 113.382 100.057 109.598 104.828 104.828C109.598 100.057 113.382 94.3935 115.964 88.1604C118.546 81.9273 119.875 75.2467 119.875 68.5C119.875 61.7533 118.546 55.0727 115.964 48.8396C113.382 42.6065 109.598 36.943 104.828 32.1724C100.057 27.4018 94.3935 23.6175 88.1604 21.0357C81.9273 18.4539 75.2467 17.125 68.5 17.125C54.8745 17.125 41.8071 22.5377 32.1724 32.1724C22.5377 41.8071 17.125 54.8745 17.125 68.5C17.125 82.1255 22.5377 95.1929 32.1724 104.828C41.8071 114.462 54.8745 119.875 68.5 119.875ZM67.1757 89.2783L95.7173 55.0283L86.9493 47.7217L62.4035 77.171L49.7025 64.4642L41.6309 72.5358L58.7559 89.6608L63.1741 94.079L67.1757 89.2783Z" fill="#BCA0DA"/>
</svg>
