<svg width="48" height="48" viewBox="0 0 48 48" fill="none" xmlns="http://www.w3.org/2000/svg">
<path d="M42 17.88C41.9793 17.6962 41.9391 17.5152 41.88 17.34V17.16C41.7861 16.9531 41.6576 16.7637 41.5 16.6L29.5 4.6C29.3363 4.44244 29.1469 4.31394 28.94 4.22C28.8803 4.21095 28.8197 4.21095 28.76 4.22C28.5564 4.10444 28.3322 4.02972 28.1 4H20C18.4087 4 16.8826 4.63214 15.7574 5.75736C14.6321 6.88258 14 8.4087 14 10V12H12C10.4087 12 8.88258 12.6321 7.75736 13.7574C6.63214 14.8826 6 16.4087 6 18V38C6 39.5913 6.63214 41.1174 7.75736 42.2426C8.88258 43.3679 10.4087 44 12 44H28C29.5913 44 31.1174 43.3679 32.2426 42.2426C33.3679 41.1174 34 39.5913 34 38V36H36C37.5913 36 39.1174 35.3679 40.2426 34.2426C41.3679 33.1174 42 31.5913 42 30V17.88ZM30 10.82L35.18 16H32C31.4696 16 30.9609 15.7893 30.5858 15.4142C30.2107 15.0391 30 14.5304 30 14V10.82ZM30 38C30 38.5304 29.7893 39.0391 29.4142 39.4142C29.0391 39.7893 28.5304 40 28 40H12C11.4696 40 10.9609 39.7893 10.5858 39.4142C10.2107 39.0391 10 38.5304 10 38V18C10 17.4696 10.2107 16.9609 10.5858 16.5858C10.9609 16.2107 11.4696 16 12 16H14V30C14 31.5913 14.6321 33.1174 15.7574 34.2426C16.8826 35.3679 18.4087 36 20 36H30V38ZM38 30C38 30.5304 37.7893 31.0391 37.4142 31.4142C37.0391 31.7893 36.5304 32 36 32H20C19.4696 32 18.9609 31.7893 18.5858 31.4142C18.2107 31.0391 18 30.5304 18 30V10C18 9.46957 18.2107 8.96086 18.5858 8.58579C18.9609 8.21071 19.4696 8 20 8H26V14C26 15.5913 26.6321 17.1174 27.7574 18.2426C28.8826 19.3679 30.4087 20 32 20H38V30Z" fill="#1C254B"/>
</svg>
