<svg width="138" height="133" viewBox="0 0 138 133" xmlns="http://www.w3.org/2000/svg"><path d="M37.743 16.801 C 28.514 17.959,20.158 23.790,16.133 31.882 C 12.461 39.264,12.447 47.947,16.096 55.245 C 16.583 56.219,17.300 57.480,17.691 58.047 C 18.081 58.614,18.400 59.122,18.400 59.177 C 18.400 59.231,17.753 59.696,16.963 60.208 C 12.532 63.082,7.477 68.317,5.679 71.895 C 4.378 74.482,4.025 76.031,4.031 79.120 C 4.036 81.661,4.111 82.209,4.677 83.835 C 5.641 86.608,6.952 88.635,9.299 90.980 C 12.279 93.957,16.049 96.156,19.929 97.178 C 24.698 98.435,28.685 93.811,26.541 89.509 C 25.792 88.006,24.961 87.367,22.492 86.398 C 16.812 84.168,14.190 80.342,15.964 76.870 C 16.269 76.273,17.123 75.093,17.862 74.246 C 20.922 70.740,24.770 68.040,29.375 66.169 C 31.326 65.377,32.304 64.570,32.994 63.186 C 33.682 61.806,33.773 60.019,33.224 58.700 C 33.010 58.187,31.824 56.832,30.262 55.315 C 27.446 52.580,26.461 51.109,25.490 48.185 C 25.033 46.811,24.956 46.120,24.964 43.470 C 24.971 40.705,25.039 40.180,25.580 38.678 C 26.482 36.174,27.503 34.598,29.572 32.518 C 31.093 30.988,31.822 30.457,33.597 29.586 C 37.049 27.893,40.405 27.305,43.585 27.838 C 44.471 27.986,45.920 28.156,46.805 28.215 C 48.237 28.310,48.555 28.250,49.678 27.673 C 52.112 26.424,53.276 23.891,52.547 21.433 C 52.112 19.970,50.855 18.489,49.565 17.921 C 47.233 16.895,41.401 16.342,37.743 16.801 M92.517 16.797 C 90.574 17.042,88.254 17.614,87.393 18.059 C 86.497 18.522,85.194 20.062,84.872 21.039 C 84.114 23.334,85.160 26.172,87.235 27.455 C 88.661 28.337,89.973 28.444,93.139 27.936 C 95.335 27.584,95.995 27.565,97.884 27.797 C 100.352 28.100,102.666 28.835,104.605 29.931 C 106.560 31.036,109.665 34.263,110.705 36.271 C 113.068 40.833,113.067 46.343,110.704 50.899 C 110.035 52.187,109.229 53.168,107.071 55.315 C 104.182 58.189,103.728 58.927,103.731 60.747 C 103.735 62.794,105.133 64.902,107.029 65.716 C 111.908 67.811,115.119 69.850,117.997 72.680 C 120.795 75.431,121.741 76.924,121.859 78.778 C 121.938 80.032,121.864 80.389,121.311 81.405 C 120.153 83.533,117.821 85.328,114.798 86.418 C 112.766 87.150,111.649 87.955,110.903 89.224 C 110.390 90.097,110.285 90.551,110.285 91.902 C 110.285 93.312,110.378 93.680,110.983 94.662 C 111.825 96.028,113.606 97.182,115.216 97.403 C 116.110 97.526,116.724 97.421,118.415 96.854 C 126.186 94.250,131.777 88.591,133.192 81.895 C 133.636 79.795,133.354 76.338,132.550 74.022 C 131.022 69.621,126.402 64.328,120.597 60.329 L 118.966 59.205 120.081 57.397 C 121.462 55.160,122.458 52.796,123.229 49.927 C 123.760 47.952,123.822 47.299,123.827 43.585 C 123.832 39.814,123.778 39.244,123.222 37.192 C 120.443 26.940,112.495 19.464,102.005 17.235 C 99.565 16.717,94.873 16.500,92.517 16.797 M65.113 27.857 C 61.063 28.327,56.588 29.969,52.992 32.307 C 50.623 33.846,46.795 37.565,45.320 39.759 C 40.204 47.374,39.306 56.613,42.864 65.048 C 43.938 67.596,46.290 71.056,48.282 73.019 C 49.178 73.901,49.910 74.688,49.910 74.768 C 49.910 74.848,48.953 75.457,47.782 76.121 C 44.282 78.107,42.136 79.764,38.982 82.915 C 34.873 87.020,33.376 89.337,32.422 93.065 C 30.198 101.763,36.331 110.890,46.805 114.465 C 51.212 115.969,53.514 116.146,68.655 116.146 C 81.554 116.146,84.941 115.981,88.076 115.201 C 95.972 113.237,102.366 107.975,104.583 101.616 C 105.355 99.400,105.556 95.604,105.022 93.327 C 104.229 89.949,102.582 87.233,99.172 83.678 C 95.827 80.192,92.103 77.337,88.608 75.579 C 87.943 75.245,87.400 74.939,87.400 74.899 C 87.400 74.859,88.185 74.010,89.143 73.013 C 92.150 69.888,94.290 66.232,95.533 62.100 C 96.339 59.423,96.596 57.606,96.598 54.576 C 96.609 38.360,81.934 25.906,65.113 27.857 M72.488 39.130 C 76.820 40.059,81.291 43.445,83.344 47.352 C 86.265 52.911,85.509 59.912,81.475 64.644 C 78.417 68.234,74.388 70.227,69.567 70.538 C 62.130 71.017,55.224 66.341,52.860 59.225 C 52.401 57.844,52.327 57.173,52.341 54.510 C 52.355 51.773,52.428 51.205,52.957 49.718 C 53.839 47.240,54.861 45.659,56.925 43.582 C 59.500 40.990,62.720 39.369,66.277 38.873 C 67.919 38.644,70.775 38.762,72.488 39.130 M74.919 82.324 C 80.992 83.572,86.521 86.645,90.719 91.107 C 91.694 92.144,92.794 93.519,93.164 94.163 C 94.976 97.323,93.160 100.936,88.616 103.210 C 85.048 104.995,85.047 104.995,68.655 104.995 C 52.291 104.995,52.255 104.992,48.743 103.234 C 44.489 101.105,42.540 97.636,43.906 94.627 C 44.910 92.416,49.244 88.220,52.651 86.161 C 56.171 84.033,60.681 82.441,64.745 81.893 C 67.233 81.558,72.218 81.769,74.919 82.324 " fill="currentColor" stroke="none" fill-rule="evenodd"></path></svg>