<svg width="77" height="85" viewBox="0 0 77 85" xmlns="http://www.w3.org/2000/svg"><path d="M35.420 0.140 C 25.705 1.074,17.309 6.594,13.237 14.724 C 9.347 22.491,9.885 31.414,14.684 38.757 C 16.188 41.058,18.395 43.431,20.516 45.028 L 21.461 45.740 21.029 45.924 C 20.792 46.025,19.731 46.533,18.672 47.053 C 13.422 49.632,8.765 53.338,5.150 57.814 C 1.322 62.555,-0.135 65.937,0.038 69.685 C 0.232 73.888,2.403 77.695,6.255 80.587 C 9.199 82.797,12.864 84.241,16.850 84.760 C 18.156 84.929,21.088 84.957,38.089 84.956 C 50.768 84.955,58.227 84.907,58.969 84.823 C 62.722 84.393,66.420 83.056,69.364 81.062 C 70.865 80.046,73.024 77.888,73.966 76.463 C 75.369 74.340,76.077 72.240,76.195 69.847 C 76.351 66.678,75.508 64.109,73.168 60.621 C 70.050 55.975,65.948 52.014,61.151 49.019 C 59.816 48.186,56.810 46.600,55.543 46.062 L 54.812 45.751 56.036 44.788 C 59.095 42.382,61.858 38.877,63.442 35.391 C 65.892 29.999,66.246 23.686,64.410 18.103 C 62.010 10.803,56.315 4.958,48.705 1.982 C 44.629 0.388,39.801 -0.281,35.420 0.140 M39.930 8.606 C 44.086 9.030,47.451 10.434,50.570 13.045 C 53.420 15.432,55.517 19.024,56.171 22.639 C 56.452 24.186,56.447 26.915,56.163 28.389 C 55.008 34.371,50.637 39.256,44.541 41.378 C 42.159 42.207,40.947 42.400,38.115 42.400 C 35.285 42.400,34.082 42.209,31.679 41.378 C 26.582 39.614,22.477 35.654,20.744 30.830 C 19.632 27.735,19.575 23.795,20.594 20.569 C 21.903 16.424,25.284 12.632,29.581 10.488 C 32.737 8.914,36.406 8.246,39.930 8.606 M42.927 51.349 C 52.625 52.725,60.943 57.993,65.893 65.893 C 66.755 67.269,67.040 68.148,67.027 69.392 C 66.997 72.420,63.591 75.315,58.969 76.242 C 58.221 76.392,54.720 76.422,37.987 76.422 L 17.902 76.422 16.785 76.137 C 13.351 75.261,10.785 73.531,9.723 71.376 C 9.369 70.657,9.298 70.356,9.261 69.432 C 9.210 68.135,9.424 67.451,10.374 65.871 C 13.948 59.923,20.481 54.915,27.656 52.622 C 32.513 51.069,37.835 50.626,42.927 51.349 " fill="currentColor" stroke="none" fill-rule="evenodd"></path></svg>