<svg width="156" height="156" viewBox="0 0 156 156" fill="none" xmlns="http://www.w3.org/2000/svg">
<path d="M120.14 108.986C111.255 111.119 101.98 111.016 93.1457 108.685C84.311 106.354 76.1923 101.869 69.5165 95.6302C62.8408 89.3917 57.8164 81.5951 54.8933 72.9383C51.9702 64.2816 51.2397 55.035 52.7671 46.0266C52.5382 46.2547 52.2927 46.4655 52.0326 46.6571C50.2126 48.0416 47.9376 48.5551 43.3876 49.5821L39.2601 50.5181C23.2701 54.1386 15.2751 55.9456 13.3706 62.0621C11.4726 68.1721 16.9196 74.5486 27.8201 87.2951L30.6411 90.5906C33.7351 94.2111 35.2886 96.0246 35.9841 98.2606C36.6796 100.503 36.4456 102.921 35.9776 107.751L35.5486 112.151C33.9041 129.162 33.0786 137.664 38.0576 141.44C43.0366 145.217 50.5246 141.778 65.4876 134.882L69.3681 133.101C73.6191 131.138 75.7446 130.163 78.0001 130.163C80.2556 130.163 82.3811 131.138 86.6386 133.101L90.5061 134.882C105.476 141.772 112.964 145.217 117.936 141.447C122.922 137.664 122.096 129.162 120.452 112.151L120.14 108.986Z" fill="#F8AA69"/>
<path opacity="0.5" d="M59.4945 35.152L57.3625 38.974C55.0225 43.173 53.8525 45.2725 52.0325 46.657C52.2925 46.462 52.5373 46.2518 52.767 46.0265C51.2392 55.0355 51.9697 64.2829 54.8931 72.9403C57.8165 81.5977 62.8416 89.3949 69.5182 95.6335C76.1947 101.872 84.3144 106.357 93.15 108.688C101.986 111.018 111.261 111.12 120.146 108.986L120.016 107.75C119.555 102.921 119.321 100.503 120.016 98.2605C120.712 96.0245 122.258 94.211 125.359 90.5905L128.18 87.295C139.08 74.555 144.527 68.1785 142.623 62.062C140.725 55.9455 132.73 54.132 116.74 50.518L112.606 49.582C108.062 48.555 105.788 48.0415 103.961 46.657C102.141 45.2725 100.971 43.173 98.631 38.974L96.5055 35.152C88.27 20.384 84.1555 13 78 13C71.8445 13 67.73 20.384 59.4945 35.152Z" fill="#F8AA69"/>
</svg>
