<svg width="424" height="424" viewBox="0 0 424 424" fill="none" xmlns="http://www.w3.org/2000/svg">
<path d="M390.75 238.5C390.75 242.014 389.354 245.384 386.869 247.869C384.384 250.354 381.014 251.75 377.5 251.75C373.986 251.75 370.616 250.354 368.131 247.869C365.646 245.384 364.25 242.014 364.25 238.5C364.202 196.345 347.434 155.931 317.627 126.123C287.819 96.3154 247.405 79.5482 205.25 79.5C202.931 79.5 200.612 79.5 198.327 79.6656C164.436 81.463 132.525 96.1867 109.164 120.805C85.8026 145.423 72.7702 178.062 72.75 212C72.7807 240.103 83.9583 267.047 103.831 286.919C123.703 306.792 150.646 317.969 178.75 318C198.071 317.978 216.594 310.293 230.256 296.631C243.918 282.969 251.603 264.446 251.625 245.125C251.625 231.068 246.041 217.588 236.102 207.648C226.162 197.709 212.681 192.125 198.625 192.125C195.111 192.125 191.741 193.521 189.256 196.006C186.771 198.491 185.375 201.861 185.375 205.375C185.375 208.889 186.771 212.259 189.256 214.744C191.741 217.229 195.111 218.625 198.625 218.625C205.653 218.625 212.394 221.417 217.363 226.387C222.333 231.356 225.125 238.097 225.125 245.125C225.125 257.424 220.239 269.22 211.542 277.917C202.845 286.614 191.049 291.5 178.75 291.5C157.672 291.478 137.464 283.095 122.559 268.191C107.655 253.286 99.2719 233.078 99.25 212C99.2807 183.896 110.458 156.953 130.331 137.081C150.203 117.208 177.146 106.031 205.25 106C240.379 106.039 274.058 120.012 298.898 144.852C323.738 169.692 337.71 203.371 337.75 238.5C337.706 277.142 322.336 314.188 295.012 341.512C267.688 368.836 230.642 384.206 192 384.25C149.845 384.202 109.431 367.434 79.6233 337.627C49.8154 307.819 33.0482 267.405 33 225.25C33.0482 179.581 51.2114 135.797 83.5041 103.504C115.797 71.2114 159.581 53.0482 205.25 53C254.431 53.0526 301.583 72.6132 336.36 107.39C371.137 142.166 390.697 189.318 390.75 238.5Z" fill="#3E67B9"/>
</svg>
