<svg width="33" height="39" viewBox="0 0 33 39" xmlns="http://www.w3.org/2000/svg"><path d="M10.862 0.053 C 10.288 0.140,9.707 0.570,9.414 1.125 L 9.268 1.403 9.251 3.613 L 9.235 5.824 5.401 5.844 C 2.413 5.859,1.524 5.879,1.371 5.935 C 0.831 6.134,0.263 6.716,0.109 7.230 C 0.072 7.352,0.043 7.645,0.044 7.880 C 0.045 8.235,0.072 8.364,0.207 8.650 C 0.406 9.073,0.757 9.432,1.155 9.620 C 1.424 9.747,1.538 9.764,2.190 9.781 C 2.685 9.793,2.929 9.819,2.945 9.863 C 2.957 9.899,3.289 15.595,3.682 22.523 C 4.075 29.450,4.421 35.308,4.451 35.540 C 4.661 37.149,5.801 38.426,7.425 38.870 C 7.761 38.961,8.318 38.968,16.500 38.968 C 24.682 38.968,25.239 38.961,25.575 38.870 C 27.213 38.422,28.354 37.133,28.550 35.510 C 28.579 35.264,28.925 29.420,29.317 22.523 C 29.709 15.625,30.036 9.945,30.044 9.900 C 30.056 9.833,30.199 9.812,30.801 9.790 C 31.451 9.766,31.580 9.745,31.845 9.620 C 32.420 9.348,32.858 8.761,32.944 8.145 C 33.071 7.229,32.639 6.429,31.802 6.033 L 31.433 5.857 27.599 5.841 L 23.765 5.824 23.749 3.613 L 23.733 1.403 23.586 1.125 C 23.380 0.734,23.022 0.396,22.605 0.198 L 22.247 0.028 16.692 0.020 C 13.637 0.015,11.014 0.030,10.862 0.053 M19.800 4.895 L 19.800 5.830 16.500 5.830 L 13.200 5.830 13.200 4.895 L 13.200 3.960 16.500 3.960 L 19.800 3.960 19.800 4.895 M26.070 9.862 C 26.070 10.122,24.632 34.919,24.614 34.966 C 24.576 35.067,8.424 35.067,8.386 34.966 C 8.368 34.919,6.930 10.122,6.930 9.862 C 6.930 9.853,11.237 9.845,16.500 9.845 C 21.764 9.845,26.070 9.853,26.070 9.862 M12.591 13.491 C 12.422 13.562,12.192 13.692,12.080 13.781 C 11.792 14.008,11.489 14.486,11.404 14.846 C 11.295 15.308,11.298 29.530,11.407 29.993 C 11.493 30.359,11.780 30.806,12.081 31.044 C 12.673 31.512,13.508 31.594,14.203 31.251 C 14.622 31.045,14.904 30.754,15.118 30.305 L 15.262 30.003 15.262 22.413 L 15.262 14.822 15.116 14.509 C 14.928 14.109,14.545 13.726,14.146 13.540 C 13.696 13.330,13.024 13.309,12.591 13.491 M18.965 13.496 C 18.565 13.661,18.259 13.905,18.042 14.231 C 17.689 14.764,17.707 14.306,17.723 22.525 L 17.738 30.003 17.882 30.305 C 18.086 30.734,18.363 31.026,18.765 31.241 C 19.064 31.401,19.178 31.430,19.584 31.450 C 19.988 31.469,20.102 31.454,20.385 31.339 C 21.005 31.089,21.452 30.590,21.593 29.993 C 21.702 29.530,21.705 15.308,21.596 14.846 C 21.511 14.486,21.208 14.008,20.920 13.781 C 20.384 13.358,19.584 13.241,18.965 13.496 " stroke="none" fill-rule="evenodd" fill="currentColor"></path></svg>